<mxfile host="app.diagrams.net" agent="Mozilla/5.0 (Windows NT 10.0; Win64; x64) AppleWebKit/537.36 (KHTML, like Gecko) Chrome/133.0.0.0 Safari/537.36 Edg/133.0.0.0" version="26.0.14">
  <diagram name="Page-1" id="iQpwSv-c-eWZTt4SR1bb">
    <mxGraphModel dx="1100" dy="654" grid="1" gridSize="10" guides="1" tooltips="1" connect="1" arrows="1" fold="1" page="1" pageScale="1" pageWidth="850" pageHeight="1100" math="0" shadow="0">
      <root>
        <mxCell id="0" />
        <mxCell id="1" parent="0" />
        <mxCell id="N3tK6W0mC9g1Ire5wzx1-1" value="" style="shape=or;whiteSpace=wrap;html=1;" vertex="1" parent="1">
          <mxGeometry x="120" y="40" width="120" height="160" as="geometry" />
        </mxCell>
        <mxCell id="N3tK6W0mC9g1Ire5wzx1-2" value="" style="shape=or;whiteSpace=wrap;html=1;" vertex="1" parent="1">
          <mxGeometry x="120" y="560" width="120" height="160" as="geometry" />
        </mxCell>
        <mxCell id="N3tK6W0mC9g1Ire5wzx1-3" value="" style="shape=or;whiteSpace=wrap;html=1;" vertex="1" parent="1">
          <mxGeometry x="120" y="390" width="120" height="160" as="geometry" />
        </mxCell>
        <mxCell id="N3tK6W0mC9g1Ire5wzx1-4" value="" style="shape=or;whiteSpace=wrap;html=1;" vertex="1" parent="1">
          <mxGeometry x="120" y="220" width="120" height="160" as="geometry" />
        </mxCell>
        <mxCell id="N3tK6W0mC9g1Ire5wzx1-29" style="edgeStyle=orthogonalEdgeStyle;rounded=0;orthogonalLoop=1;jettySize=auto;html=1;exitX=1;exitY=0.5;exitDx=0;exitDy=0;exitPerimeter=0;entryX=0.175;entryY=0.25;entryDx=0;entryDy=0;entryPerimeter=0;" edge="1" parent="1" source="N3tK6W0mC9g1Ire5wzx1-5" target="N3tK6W0mC9g1Ire5wzx1-12">
          <mxGeometry relative="1" as="geometry">
            <mxPoint x="730" y="290" as="targetPoint" />
          </mxGeometry>
        </mxCell>
        <mxCell id="N3tK6W0mC9g1Ire5wzx1-5" value="" style="shape=xor;whiteSpace=wrap;html=1;" vertex="1" parent="1">
          <mxGeometry x="310" y="140" width="130" height="140" as="geometry" />
        </mxCell>
        <mxCell id="N3tK6W0mC9g1Ire5wzx1-7" style="edgeStyle=orthogonalEdgeStyle;rounded=0;orthogonalLoop=1;jettySize=auto;html=1;exitX=1;exitY=0.5;exitDx=0;exitDy=0;exitPerimeter=0;entryX=0.175;entryY=0.25;entryDx=0;entryDy=0;entryPerimeter=0;" edge="1" parent="1" source="N3tK6W0mC9g1Ire5wzx1-1" target="N3tK6W0mC9g1Ire5wzx1-5">
          <mxGeometry relative="1" as="geometry" />
        </mxCell>
        <mxCell id="N3tK6W0mC9g1Ire5wzx1-10" style="edgeStyle=orthogonalEdgeStyle;rounded=0;orthogonalLoop=1;jettySize=auto;html=1;exitX=1;exitY=0.5;exitDx=0;exitDy=0;exitPerimeter=0;entryX=0.25;entryY=0.5;entryDx=0;entryDy=0;entryPerimeter=0;" edge="1" parent="1" source="N3tK6W0mC9g1Ire5wzx1-4" target="N3tK6W0mC9g1Ire5wzx1-5">
          <mxGeometry relative="1" as="geometry" />
        </mxCell>
        <mxCell id="N3tK6W0mC9g1Ire5wzx1-35" style="edgeStyle=orthogonalEdgeStyle;rounded=0;orthogonalLoop=1;jettySize=auto;html=1;exitX=1;exitY=0.5;exitDx=0;exitDy=0;exitPerimeter=0;" edge="1" parent="1" source="N3tK6W0mC9g1Ire5wzx1-12">
          <mxGeometry relative="1" as="geometry">
            <mxPoint x="780" y="374.9230769230769" as="targetPoint" />
          </mxGeometry>
        </mxCell>
        <mxCell id="N3tK6W0mC9g1Ire5wzx1-12" value="" style="shape=xor;whiteSpace=wrap;html=1;" vertex="1" parent="1">
          <mxGeometry x="570" y="280" width="160" height="190" as="geometry" />
        </mxCell>
        <mxCell id="N3tK6W0mC9g1Ire5wzx1-33" style="edgeStyle=orthogonalEdgeStyle;rounded=0;orthogonalLoop=1;jettySize=auto;html=1;exitX=1;exitY=0.5;exitDx=0;exitDy=0;exitPerimeter=0;entryX=0.175;entryY=0.75;entryDx=0;entryDy=0;entryPerimeter=0;" edge="1" parent="1" source="N3tK6W0mC9g1Ire5wzx1-13" target="N3tK6W0mC9g1Ire5wzx1-12">
          <mxGeometry relative="1" as="geometry">
            <mxPoint x="710" y="440" as="targetPoint" />
          </mxGeometry>
        </mxCell>
        <mxCell id="N3tK6W0mC9g1Ire5wzx1-13" value="" style="shape=xor;whiteSpace=wrap;html=1;" vertex="1" parent="1">
          <mxGeometry x="340" y="470" width="110" height="140" as="geometry" />
        </mxCell>
        <mxCell id="N3tK6W0mC9g1Ire5wzx1-24" style="edgeStyle=orthogonalEdgeStyle;rounded=0;orthogonalLoop=1;jettySize=auto;html=1;exitX=1;exitY=0.5;exitDx=0;exitDy=0;exitPerimeter=0;entryX=0.175;entryY=0.25;entryDx=0;entryDy=0;entryPerimeter=0;" edge="1" parent="1" source="N3tK6W0mC9g1Ire5wzx1-3" target="N3tK6W0mC9g1Ire5wzx1-13">
          <mxGeometry relative="1" as="geometry" />
        </mxCell>
        <mxCell id="N3tK6W0mC9g1Ire5wzx1-25" style="edgeStyle=orthogonalEdgeStyle;rounded=0;orthogonalLoop=1;jettySize=auto;html=1;exitX=1;exitY=0.5;exitDx=0;exitDy=0;exitPerimeter=0;entryX=0.25;entryY=0.5;entryDx=0;entryDy=0;entryPerimeter=0;" edge="1" parent="1" source="N3tK6W0mC9g1Ire5wzx1-2" target="N3tK6W0mC9g1Ire5wzx1-13">
          <mxGeometry relative="1" as="geometry" />
        </mxCell>
        <mxCell id="N3tK6W0mC9g1Ire5wzx1-36" value="&lt;h1&gt;A&lt;/h1&gt;" style="text;html=1;align=center;verticalAlign=middle;resizable=0;points=[];autosize=1;strokeColor=none;fillColor=none;" vertex="1" parent="1">
          <mxGeometry x="780" y="338" width="40" height="70" as="geometry" />
        </mxCell>
        <mxCell id="N3tK6W0mC9g1Ire5wzx1-49" style="edgeStyle=orthogonalEdgeStyle;rounded=0;orthogonalLoop=1;jettySize=auto;html=1;exitX=0;exitY=0.5;exitDx=0;exitDy=0;entryX=0;entryY=0.5;entryDx=0;entryDy=0;" edge="1" parent="1" target="N3tK6W0mC9g1Ire5wzx1-39">
          <mxGeometry relative="1" as="geometry">
            <mxPoint x="40" y="54.87234042553189" as="sourcePoint" />
          </mxGeometry>
        </mxCell>
        <mxCell id="N3tK6W0mC9g1Ire5wzx1-39" value="" style="ellipse;whiteSpace=wrap;html=1;aspect=fixed;" vertex="1" parent="1">
          <mxGeometry x="110" y="50" width="10" height="10" as="geometry" />
        </mxCell>
        <mxCell id="N3tK6W0mC9g1Ire5wzx1-47" style="edgeStyle=orthogonalEdgeStyle;rounded=0;orthogonalLoop=1;jettySize=auto;html=1;exitX=0;exitY=0.5;exitDx=0;exitDy=0;entryX=0;entryY=0.5;entryDx=0;entryDy=0;" edge="1" parent="1" target="N3tK6W0mC9g1Ire5wzx1-41">
          <mxGeometry relative="1" as="geometry">
            <mxPoint x="40" y="134.8723404255319" as="sourcePoint" />
          </mxGeometry>
        </mxCell>
        <mxCell id="N3tK6W0mC9g1Ire5wzx1-41" value="" style="ellipse;whiteSpace=wrap;html=1;aspect=fixed;" vertex="1" parent="1">
          <mxGeometry x="110" y="130" width="10" height="10" as="geometry" />
        </mxCell>
        <mxCell id="N3tK6W0mC9g1Ire5wzx1-48" style="edgeStyle=orthogonalEdgeStyle;rounded=0;orthogonalLoop=1;jettySize=auto;html=1;exitX=0;exitY=0.5;exitDx=0;exitDy=0;entryX=0;entryY=0.5;entryDx=0;entryDy=0;" edge="1" parent="1" target="N3tK6W0mC9g1Ire5wzx1-42">
          <mxGeometry relative="1" as="geometry">
            <mxPoint x="40" y="94.87234042553189" as="sourcePoint" />
          </mxGeometry>
        </mxCell>
        <mxCell id="N3tK6W0mC9g1Ire5wzx1-42" value="" style="ellipse;whiteSpace=wrap;html=1;aspect=fixed;" vertex="1" parent="1">
          <mxGeometry x="110" y="90" width="10" height="10" as="geometry" />
        </mxCell>
        <mxCell id="N3tK6W0mC9g1Ire5wzx1-45" value="" style="endArrow=classic;html=1;rounded=0;exitX=0;exitY=0.75;exitDx=0;exitDy=0;exitPerimeter=0;" edge="1" parent="1">
          <mxGeometry width="50" height="50" relative="1" as="geometry">
            <mxPoint x="40" y="170" as="sourcePoint" />
            <mxPoint x="120" y="170" as="targetPoint" />
            <Array as="points" />
          </mxGeometry>
        </mxCell>
        <mxCell id="N3tK6W0mC9g1Ire5wzx1-50" value="a[3]" style="text;html=1;align=center;verticalAlign=middle;resizable=0;points=[];autosize=1;strokeColor=none;fillColor=none;" vertex="1" parent="1">
          <mxGeometry x="50" y="30" width="40" height="30" as="geometry" />
        </mxCell>
        <mxCell id="N3tK6W0mC9g1Ire5wzx1-51" value="a[2]" style="text;html=1;align=center;verticalAlign=middle;resizable=0;points=[];autosize=1;strokeColor=none;fillColor=none;" vertex="1" parent="1">
          <mxGeometry x="30" y="68" width="40" height="30" as="geometry" />
        </mxCell>
        <mxCell id="N3tK6W0mC9g1Ire5wzx1-52" value="a[1]" style="text;html=1;align=center;verticalAlign=middle;resizable=0;points=[];autosize=1;strokeColor=none;fillColor=none;" vertex="1" parent="1">
          <mxGeometry x="30" y="110" width="40" height="30" as="geometry" />
        </mxCell>
        <mxCell id="N3tK6W0mC9g1Ire5wzx1-53" value="a[0]" style="text;html=1;align=center;verticalAlign=middle;resizable=0;points=[];autosize=1;strokeColor=none;fillColor=none;" vertex="1" parent="1">
          <mxGeometry x="30" y="140" width="40" height="30" as="geometry" />
        </mxCell>
        <mxCell id="N3tK6W0mC9g1Ire5wzx1-59" style="edgeStyle=orthogonalEdgeStyle;rounded=0;orthogonalLoop=1;jettySize=auto;html=1;exitX=0;exitY=0.5;exitDx=0;exitDy=0;entryX=0;entryY=0.5;entryDx=0;entryDy=0;" edge="1" parent="1" target="N3tK6W0mC9g1Ire5wzx1-54">
          <mxGeometry relative="1" as="geometry">
            <mxPoint x="40" y="245.08510638297872" as="sourcePoint" />
          </mxGeometry>
        </mxCell>
        <mxCell id="N3tK6W0mC9g1Ire5wzx1-54" value="" style="ellipse;whiteSpace=wrap;html=1;aspect=fixed;" vertex="1" parent="1">
          <mxGeometry x="110" y="240" width="10" height="10" as="geometry" />
        </mxCell>
        <mxCell id="N3tK6W0mC9g1Ire5wzx1-60" style="edgeStyle=orthogonalEdgeStyle;rounded=0;orthogonalLoop=1;jettySize=auto;html=1;exitX=0;exitY=0.5;exitDx=0;exitDy=0;entryX=0;entryY=0.5;entryDx=0;entryDy=0;" edge="1" parent="1" target="N3tK6W0mC9g1Ire5wzx1-55">
          <mxGeometry relative="1" as="geometry">
            <mxPoint x="40" y="315" as="sourcePoint" />
          </mxGeometry>
        </mxCell>
        <mxCell id="N3tK6W0mC9g1Ire5wzx1-55" value="" style="ellipse;whiteSpace=wrap;html=1;aspect=fixed;" vertex="1" parent="1">
          <mxGeometry x="110" y="310" width="10" height="10" as="geometry" />
        </mxCell>
        <mxCell id="N3tK6W0mC9g1Ire5wzx1-61" style="edgeStyle=orthogonalEdgeStyle;rounded=0;orthogonalLoop=1;jettySize=auto;html=1;exitX=0;exitY=0.5;exitDx=0;exitDy=0;entryX=0;entryY=0.5;entryDx=0;entryDy=0;" edge="1" parent="1" target="N3tK6W0mC9g1Ire5wzx1-56">
          <mxGeometry relative="1" as="geometry">
            <mxPoint x="40" y="354.8723404255319" as="sourcePoint" />
          </mxGeometry>
        </mxCell>
        <mxCell id="N3tK6W0mC9g1Ire5wzx1-56" value="" style="ellipse;whiteSpace=wrap;html=1;aspect=fixed;" vertex="1" parent="1">
          <mxGeometry x="110" y="350" width="10" height="10" as="geometry" />
        </mxCell>
        <mxCell id="N3tK6W0mC9g1Ire5wzx1-58" value="" style="endArrow=classic;html=1;rounded=0;exitX=0;exitY=0.375;exitDx=0;exitDy=0;exitPerimeter=0;entryX=0;entryY=0.375;entryDx=0;entryDy=0;entryPerimeter=0;" edge="1" parent="1" target="N3tK6W0mC9g1Ire5wzx1-4">
          <mxGeometry width="50" height="50" relative="1" as="geometry">
            <mxPoint x="40" y="280" as="sourcePoint" />
            <mxPoint x="120" y="270" as="targetPoint" />
          </mxGeometry>
        </mxCell>
        <mxCell id="N3tK6W0mC9g1Ire5wzx1-62" value="a[3]" style="text;html=1;align=center;verticalAlign=middle;resizable=0;points=[];autosize=1;strokeColor=none;fillColor=none;" vertex="1" parent="1">
          <mxGeometry x="50" y="218" width="40" height="30" as="geometry" />
        </mxCell>
        <mxCell id="N3tK6W0mC9g1Ire5wzx1-63" value="a[2]" style="text;html=1;align=center;verticalAlign=middle;resizable=0;points=[];autosize=1;strokeColor=none;fillColor=none;" vertex="1" parent="1">
          <mxGeometry x="40" y="258" width="40" height="30" as="geometry" />
        </mxCell>
        <mxCell id="N3tK6W0mC9g1Ire5wzx1-64" value="a[1]" style="text;html=1;align=center;verticalAlign=middle;resizable=0;points=[];autosize=1;strokeColor=none;fillColor=none;" vertex="1" parent="1">
          <mxGeometry x="40" y="288" width="40" height="30" as="geometry" />
        </mxCell>
        <mxCell id="N3tK6W0mC9g1Ire5wzx1-65" value="a[0]" style="text;html=1;align=center;verticalAlign=middle;resizable=0;points=[];autosize=1;strokeColor=none;fillColor=none;" vertex="1" parent="1">
          <mxGeometry x="40" y="330" width="40" height="30" as="geometry" />
        </mxCell>
        <mxCell id="N3tK6W0mC9g1Ire5wzx1-74" style="edgeStyle=orthogonalEdgeStyle;rounded=0;orthogonalLoop=1;jettySize=auto;html=1;exitX=0;exitY=0.5;exitDx=0;exitDy=0;entryX=0;entryY=0.5;entryDx=0;entryDy=0;" edge="1" parent="1" target="N3tK6W0mC9g1Ire5wzx1-66">
          <mxGeometry relative="1" as="geometry">
            <mxPoint x="50" y="474.8723404255319" as="sourcePoint" />
          </mxGeometry>
        </mxCell>
        <mxCell id="N3tK6W0mC9g1Ire5wzx1-66" value="" style="ellipse;whiteSpace=wrap;html=1;aspect=fixed;" vertex="1" parent="1">
          <mxGeometry x="110" y="470" width="10" height="10" as="geometry" />
        </mxCell>
        <mxCell id="N3tK6W0mC9g1Ire5wzx1-71" value="" style="endArrow=classic;html=1;rounded=0;exitX=-0.003;exitY=0.844;exitDx=0;exitDy=0;exitPerimeter=0;entryX=-0.003;entryY=0.844;entryDx=0;entryDy=0;entryPerimeter=0;" edge="1" parent="1" target="N3tK6W0mC9g1Ire5wzx1-3">
          <mxGeometry width="50" height="50" relative="1" as="geometry">
            <mxPoint x="50" y="524" as="sourcePoint" />
            <mxPoint x="210" y="460" as="targetPoint" />
          </mxGeometry>
        </mxCell>
        <mxCell id="N3tK6W0mC9g1Ire5wzx1-72" value="" style="endArrow=classic;html=1;rounded=0;exitX=-0.003;exitY=0.844;exitDx=0;exitDy=0;exitPerimeter=0;" edge="1" parent="1">
          <mxGeometry width="50" height="50" relative="1" as="geometry">
            <mxPoint x="50" y="408" as="sourcePoint" />
            <mxPoint x="120" y="409" as="targetPoint" />
          </mxGeometry>
        </mxCell>
        <mxCell id="N3tK6W0mC9g1Ire5wzx1-73" value="" style="endArrow=classic;html=1;rounded=0;exitX=-0.003;exitY=0.844;exitDx=0;exitDy=0;exitPerimeter=0;" edge="1" parent="1">
          <mxGeometry width="50" height="50" relative="1" as="geometry">
            <mxPoint x="50" y="440" as="sourcePoint" />
            <mxPoint x="120" y="441" as="targetPoint" />
          </mxGeometry>
        </mxCell>
        <mxCell id="N3tK6W0mC9g1Ire5wzx1-75" value="a[3]" style="text;html=1;align=center;verticalAlign=middle;resizable=0;points=[];autosize=1;strokeColor=none;fillColor=none;" vertex="1" parent="1">
          <mxGeometry x="50" y="380" width="40" height="30" as="geometry" />
        </mxCell>
        <mxCell id="N3tK6W0mC9g1Ire5wzx1-76" value="a[2]" style="text;html=1;align=center;verticalAlign=middle;resizable=0;points=[];autosize=1;strokeColor=none;fillColor=none;" vertex="1" parent="1">
          <mxGeometry x="50" y="418" width="40" height="30" as="geometry" />
        </mxCell>
        <mxCell id="N3tK6W0mC9g1Ire5wzx1-77" value="a[1]" style="text;html=1;align=center;verticalAlign=middle;resizable=0;points=[];autosize=1;strokeColor=none;fillColor=none;" vertex="1" parent="1">
          <mxGeometry x="50" y="450" width="40" height="30" as="geometry" />
        </mxCell>
        <mxCell id="N3tK6W0mC9g1Ire5wzx1-78" value="a[0]" style="text;html=1;align=center;verticalAlign=middle;resizable=0;points=[];autosize=1;strokeColor=none;fillColor=none;" vertex="1" parent="1">
          <mxGeometry x="50" y="498" width="40" height="30" as="geometry" />
        </mxCell>
        <mxCell id="N3tK6W0mC9g1Ire5wzx1-79" value="" style="endArrow=classic;html=1;rounded=0;exitX=0.004;exitY=0.13;exitDx=0;exitDy=0;exitPerimeter=0;entryX=0.004;entryY=0.13;entryDx=0;entryDy=0;entryPerimeter=0;" edge="1" parent="1" target="N3tK6W0mC9g1Ire5wzx1-2">
          <mxGeometry width="50" height="50" relative="1" as="geometry">
            <mxPoint x="50" y="580" as="sourcePoint" />
            <mxPoint x="150" y="555" as="targetPoint" />
            <Array as="points">
              <mxPoint x="90" y="580" />
            </Array>
          </mxGeometry>
        </mxCell>
        <mxCell id="N3tK6W0mC9g1Ire5wzx1-83" style="edgeStyle=orthogonalEdgeStyle;rounded=0;orthogonalLoop=1;jettySize=auto;html=1;exitX=0;exitY=0.5;exitDx=0;exitDy=0;entryX=0;entryY=0.5;entryDx=0;entryDy=0;" edge="1" parent="1" target="N3tK6W0mC9g1Ire5wzx1-82">
          <mxGeometry relative="1" as="geometry">
            <mxPoint x="50" y="614.8723404255319" as="sourcePoint" />
          </mxGeometry>
        </mxCell>
        <mxCell id="N3tK6W0mC9g1Ire5wzx1-82" value="" style="ellipse;whiteSpace=wrap;html=1;aspect=fixed;" vertex="1" parent="1">
          <mxGeometry x="110" y="610" width="10" height="10" as="geometry" />
        </mxCell>
        <mxCell id="N3tK6W0mC9g1Ire5wzx1-84" value="" style="endArrow=classic;html=1;rounded=0;exitX=-0.007;exitY=0.617;exitDx=0;exitDy=0;exitPerimeter=0;entryX=-0.007;entryY=0.617;entryDx=0;entryDy=0;entryPerimeter=0;" edge="1" parent="1" target="N3tK6W0mC9g1Ire5wzx1-2">
          <mxGeometry width="50" height="50" relative="1" as="geometry">
            <mxPoint x="50" y="660" as="sourcePoint" />
            <mxPoint x="130" y="591" as="targetPoint" />
            <Array as="points" />
          </mxGeometry>
        </mxCell>
        <mxCell id="N3tK6W0mC9g1Ire5wzx1-85" value="" style="endArrow=classic;html=1;rounded=0;exitX=0;exitY=0.813;exitDx=0;exitDy=0;exitPerimeter=0;entryX=0;entryY=0.813;entryDx=0;entryDy=0;entryPerimeter=0;" edge="1" parent="1" target="N3tK6W0mC9g1Ire5wzx1-2">
          <mxGeometry width="50" height="50" relative="1" as="geometry">
            <mxPoint x="50" y="690" as="sourcePoint" />
            <mxPoint x="140" y="601" as="targetPoint" />
            <Array as="points">
              <mxPoint x="100" y="690" />
            </Array>
          </mxGeometry>
        </mxCell>
        <mxCell id="N3tK6W0mC9g1Ire5wzx1-87" value="a[3]" style="text;html=1;align=center;verticalAlign=middle;resizable=0;points=[];autosize=1;strokeColor=none;fillColor=none;" vertex="1" parent="1">
          <mxGeometry x="60" y="550" width="40" height="30" as="geometry" />
        </mxCell>
        <mxCell id="N3tK6W0mC9g1Ire5wzx1-88" value="a[2]" style="text;html=1;align=center;verticalAlign=middle;resizable=0;points=[];autosize=1;strokeColor=none;fillColor=none;" vertex="1" parent="1">
          <mxGeometry x="50" y="590" width="40" height="30" as="geometry" />
        </mxCell>
        <mxCell id="N3tK6W0mC9g1Ire5wzx1-89" value="a[1]" style="text;html=1;align=center;verticalAlign=middle;resizable=0;points=[];autosize=1;strokeColor=none;fillColor=none;" vertex="1" parent="1">
          <mxGeometry x="60" y="638" width="40" height="30" as="geometry" />
        </mxCell>
        <mxCell id="N3tK6W0mC9g1Ire5wzx1-91" value="a[0]" style="text;html=1;align=center;verticalAlign=middle;resizable=0;points=[];autosize=1;strokeColor=none;fillColor=none;" vertex="1" parent="1">
          <mxGeometry x="50" y="668" width="40" height="30" as="geometry" />
        </mxCell>
      </root>
    </mxGraphModel>
  </diagram>
</mxfile>
